# xmcd CD database file
#
# Track frame offsets:
#	183
#	21850
#	41795
#	54775
#	76718
#	98438
#	116175
#	132088
#	158370
#	179318
#	193403
#	209213
#	227278
#
# Disc length: 3320 seconds
#
# Revision: 0
# Processed by: cddbd v1.5.1PL0 Copyright (c) Steve Scherf et al.
# Submitted via: CDex 1.50beta10
#
DISCID=a00cf60d
DTITLE=Mighty Houserockers - Fuelled Up
DYEAR=1991
DGENRE=Blues
TTITLE0=Guitar Man
TTITLE1=Fuelled Up
TTITLE2=Ain't Got Nobody
TTITLE3=Blue Light
TTITLE4=Don't Leave Me
TTITLE5=No Money Down
TTITLE6=Madison Blues
TTITLE7=Monday Morning Blues
TTITLE8=She Suits Me
TTITLE9=I'm a Fool
TTITLE10=I Believe I'm in Love
TTITLE11=See You in the Evening
TTITLE12=Wilson's Groove
EXTD=YEAR: 1991
EXTT0=
EXTT1=
EXTT2=
EXTT3=
EXTT4=
EXTT5=
EXTT6=
EXTT7=
EXTT8=
EXTT9=
EXTT10=
EXTT11=
EXTT12=
PLAYORDER=
